<svg width="121" height="69" viewBox="0 0 121 69" fill="none" xmlns="http://www.w3.org/2000/svg">
<path d="M32.9169 32.56C26.7169 36.44 14.6369 40.9 11.8169 47.98C11.6569 48.36 11.5569 48.72 11.4969 49.08V51.12C12.2769 54.66 17.0969 56.62 20.3369 56.96C20.4569 56.96 20.5969 56.98 20.7769 56.98H24.7969C29.5369 56.82 35.9769 56.06 35.7369 54.06C35.4369 51.46 28.3369 55.46 20.2969 54.32C18.1769 54 15.4769 53.24 14.2569 51.24C11.2169 46.26 30.0369 36.9 33.8369 34.96C35.9169 33.92 39.5369 33.3 38.2369 30.86C37.4769 30.2 34.9769 31.68 30.1969 27.9C27.2969 25.6 26.6969 23.72 29.4169 20.92C32.2369 18.02 40.6569 13.24 44.4969 13.52C43.7569 18.02 37.7169 22.58 38.3169 24.14C39.1169 26.24 40.8369 24.14 41.5569 23.26C42.9969 21.44 46.6369 16.54 46.9969 13.48V12.66C46.8769 11.86 46.4169 11.26 45.4169 11.04H43.0969C42.7169 11.1 42.2969 11.18 41.8369 11.28C37.4769 12.32 29.9369 16.14 27.1969 19.66C21.8369 26.48 27.7569 29.24 32.9169 32.56ZM46.4405 23.36L33.6005 58.48C32.6405 60.66 32.1605 62.38 32.1605 63.66C32.1805 64.64 32.6405 64.86 33.5005 64.3C33.6605 64.24 33.7805 64.14 33.9005 63.98C33.9605 63.9 34.0205 63.8 34.1005 63.7C34.5805 62.94 34.8605 62.42 34.9605 62.16C35.0205 61.92 35.1805 61.32 35.4005 60.42C35.6405 59.5 35.8805 58.6 36.2005 57.72L41.2605 43.96C41.2805 43.88 47.5605 47.76 48.8805 43.98C49.3805 42.5 46.3405 44.18 43.1005 41.42C42.7405 41.12 43.2205 40.54 43.7605 40.14C45.2605 39 50.8805 35.94 49.6805 33.82C49.5005 33.52 49.2005 33.48 48.7605 33.72L44.3005 37.1C43.9805 37.32 43.7805 37.42 43.7405 37.38C43.6805 37.32 43.7205 37.16 43.8205 36.84L48.7205 23.46C49.6005 21.08 49.5805 19.9 48.6405 19.9C48.1405 19.9 47.6805 20.16 47.2605 20.66C47.2005 20.76 47.1405 20.84 47.1005 20.9C46.8605 22.02 46.6405 22.84 46.4405 23.36ZM56.6786 36.48C55.5586 36.64 53.7986 37.4 52.9986 38.32C52.1186 39.28 51.5186 40.98 52.4386 42C53.1786 42.82 54.3586 42.86 55.1386 43.18C51.4786 43.18 49.3386 47.6 51.2386 48.98C53.0186 50.3 56.9586 48.94 57.8186 45.68C59.0386 45.2 64.2386 42.78 63.5786 41.06C63.3986 40.62 62.8186 40.32 62.1386 40.8C60.3186 42.12 60.3786 42.24 58.1986 42.84C57.5986 40.96 54.8386 41.04 54.2386 40.36C54.4386 39.1 56.6186 38.78 56.6986 38.74C56.8586 38.62 58.1186 36.6 56.6786 36.48ZM55.1786 45.42C52.7186 49.92 51.2186 45.8 54.2986 45.52L55.1786 45.42ZM70.5698 38.64C68.1498 38.58 64.8898 38.78 63.8898 40.82C62.8698 42.9 65.5498 45.06 66.4298 45.06C67.2698 45.06 68.1098 44.02 69.0498 43.38C69.6698 42.94 68.1498 45.64 69.3898 46.5C69.9298 46.9 70.5498 46.72 71.0898 46.42C73.5098 45.12 75.4098 43.78 77.6098 42C77.7498 41.5 77.7498 41.32 77.4298 40.98C77.1298 40.68 76.7898 40.52 76.3498 40.68C75.9498 40.98 71.6098 43.74 71.6098 43.28L73.1298 39.82C73.3298 38.38 71.6098 38.64 70.5698 38.64ZM68.5698 41.08C67.8498 41.74 66.5298 43.24 65.9298 41.56C66.4498 41.08 68.7898 40.74 68.5698 41.08ZM94.202 15.6C93.782 15.6 93.302 15.94 93.162 16.36C93.162 16.36 90.402 24.42 87.062 32.3C86.062 34.66 85.022 36.98 83.982 39.06C83.642 38.74 83.262 38.5 82.842 38.34C82.042 38.06 81.202 38.2 80.542 38.54C79.222 39.22 78.382 40.54 77.702 41.94C77.002 43.36 76.562 44.86 76.462 46.12C76.402 46.76 76.402 47.34 76.742 47.98C76.902 48.3 77.222 48.62 77.622 48.78C77.922 48.9 78.222 48.9 78.502 48.86C79.002 48.92 79.502 48.82 79.922 48.62C80.422 48.38 80.862 48.02 81.302 47.58C82.122 46.78 82.902 45.66 83.722 44.32L78.502 59.74C78.482 59.84 78.442 60 78.442 60.1C78.442 60.72 78.962 61.24 79.582 61.24C79.942 61.24 80.362 61 80.542 60.68C81.542 59.02 81.962 57.92 82.102 57.14C82.182 56.74 82.182 56.4 82.142 56.14C82.142 56.12 82.122 56.1 82.122 56.1L95.302 17.08C95.342 17 95.362 16.84 95.362 16.74C95.362 16.1 94.862 15.6 94.222 15.6C94.222 15.6 94.222 15.6 94.202 15.6ZM81.862 40.44C81.942 40.44 82.002 40.44 82.082 40.48C82.222 40.52 82.502 40.72 82.862 41.24C82.542 41.82 82.242 42.38 81.942 42.88C81.122 44.26 80.322 45.36 79.702 45.98C79.382 46.3 79.102 46.5 78.942 46.58C78.862 46.62 78.822 46.62 78.802 46.62C78.782 46.62 78.742 46.6 78.702 46.6C78.702 46.52 78.702 46.42 78.722 46.3C78.782 45.48 79.162 44.1 79.742 42.94C80.302 41.78 81.102 40.8 81.602 40.56C81.722 40.48 81.802 40.46 81.862 40.44ZM94.0283 34.88L88.4283 49.74C88.1683 50.42 88.3083 50.8 88.8083 50.88C89.3283 50.98 89.8483 50.86 90.3683 50.56C92.8883 46.74 95.9083 42.2 98.9883 38.86C99.2883 38.52 99.4283 38.44 99.4083 38.64C99.3883 38.7 99.3683 38.84 99.3083 39.06C98.9083 40.32 98.5483 41.42 98.0083 42.66C97.7483 43.24 97.5683 43.66 97.4283 43.94C95.6483 47.44 100.688 43.5 101.248 43.7C101.348 43.76 101.408 43.8 101.448 43.88C101.888 44.88 101.928 46.44 102.548 47.16C102.788 47.44 103.088 47.58 103.448 47.56C105.548 47.48 109.188 44.06 110.888 42.76C111.228 42.42 111.288 41.98 111.068 41.48C110.828 40.98 110.448 40.78 109.848 40.88L104.608 44.32C104.368 44.48 104.208 44.58 104.128 44.56C104.068 44.54 103.988 44.42 103.928 44.2C103.528 42.24 104.728 39.58 101.468 40.62C101.408 40.62 101.348 40.62 101.268 40.62C101.108 40.58 101.268 40.34 101.248 40.14C101.628 38.94 102.208 36.86 101.308 35.86C99.6883 33.76 95.7083 39.52 94.7483 40.72C94.4283 41.12 94.2683 41.32 94.2683 41.32C94.1883 41.36 94.2883 41.1 94.4683 40.56L96.1483 35.44C96.3883 34.72 96.2283 34.32 95.7283 34.22C95.2483 34.12 94.6683 34.34 94.0283 34.88Z" fill="#787878"/>
</svg>
