<svg width="65" height="27" viewBox="0 0 65 27" fill="none" xmlns="http://www.w3.org/2000/svg">
<path fill-rule="evenodd" clip-rule="evenodd" d="M21.4345 2.82033C18.3401 5.24748 16.352 9.02079 16.352 13.2584C16.352 17.4961 18.3401 21.2694 21.4345 23.6965C19.1819 25.4634 16.3432 26.5169 13.2584 26.5169C5.936 26.5169 0 20.5809 0 13.2584C0 5.936 5.936 0 13.2584 0C16.3432 0 19.1819 1.0535 21.4345 2.82033Z" fill="#759324"/>
<path fill-rule="evenodd" clip-rule="evenodd" d="M39.9963 2.82033C36.902 5.24748 34.9139 9.02079 34.9139 13.2584C34.9139 17.4961 36.902 21.2694 39.9963 23.6965C37.7438 25.4634 34.9051 26.5169 31.8203 26.5169C24.4979 26.5169 18.5619 20.5809 18.5619 13.2584C18.5619 5.936 24.4979 0 31.8203 0C34.9051 0 37.7438 1.0535 39.9963 2.82033Z" fill="#7A5EB1"/>
<path fill-rule="evenodd" clip-rule="evenodd" d="M50.824 26.5169C58.1415 26.5169 64.0744 20.5889 64.0824 13.2732C64.0824 13.2683 64.0824 13.2634 64.0824 13.2584C64.0824 13.2535 64.0824 13.2486 64.0824 13.2436C64.0744 5.92801 58.1415 0 50.824 0C43.5016 0 37.5656 5.936 37.5656 13.2584C37.5656 20.5809 43.5016 26.5169 50.824 26.5169Z" fill="#AF7A30"/>
</svg>
