<svg width="188" height="69" viewBox="0 0 188 69" fill="none" xmlns="http://www.w3.org/2000/svg">
<path d="M101.917 32.56C95.7169 36.44 83.6369 40.9 80.8169 47.98C80.6569 48.36 80.5569 48.72 80.4969 49.08V51.12C81.2769 54.66 86.0969 56.62 89.3369 56.96C89.4569 56.96 89.5969 56.98 89.7769 56.98H93.7969C98.5369 56.82 104.977 56.06 104.737 54.06C104.437 51.46 97.3369 55.46 89.2969 54.32C87.1769 54 84.4769 53.24 83.2569 51.24C80.2169 46.26 99.0369 36.9 102.837 34.96C104.917 33.92 108.537 33.3 107.237 30.86C106.477 30.2 103.977 31.68 99.1969 27.9C96.2969 25.6 95.6969 23.72 98.4169 20.92C101.237 18.02 109.657 13.24 113.497 13.52C112.757 18.02 106.717 22.58 107.317 24.14C108.117 26.24 109.837 24.14 110.557 23.26C111.997 21.44 115.637 16.54 115.997 13.48V12.66C115.877 11.86 115.417 11.26 114.417 11.04H112.097C111.717 11.1 111.297 11.18 110.837 11.28C106.477 12.32 98.9369 16.14 96.1969 19.66C90.8369 26.48 96.7569 29.24 101.917 32.56ZM115.44 23.36L102.6 58.48C101.64 60.66 101.16 62.38 101.16 63.66C101.18 64.64 101.64 64.86 102.5 64.3C102.66 64.24 102.78 64.14 102.9 63.98C102.96 63.9 103.02 63.8 103.1 63.7C103.58 62.94 103.86 62.42 103.96 62.16C104.02 61.92 104.18 61.32 104.4 60.42C104.64 59.5 104.88 58.6 105.2 57.72L110.26 43.96C110.28 43.88 116.56 47.76 117.88 43.98C118.38 42.5 115.34 44.18 112.1 41.42C111.74 41.12 112.22 40.54 112.76 40.14C114.26 39 119.88 35.94 118.68 33.82C118.5 33.52 118.2 33.48 117.76 33.72L113.3 37.1C112.98 37.32 112.78 37.42 112.74 37.38C112.68 37.32 112.72 37.16 112.82 36.84L117.72 23.46C118.6 21.08 118.58 19.9 117.64 19.9C117.14 19.9 116.68 20.16 116.26 20.66C116.2 20.76 116.14 20.84 116.1 20.9C115.86 22.02 115.64 22.84 115.44 23.36ZM125.679 36.48C124.559 36.64 122.799 37.4 121.999 38.32C121.119 39.28 120.519 40.98 121.439 42C122.179 42.82 123.359 42.86 124.139 43.18C120.479 43.18 118.339 47.6 120.239 48.98C122.019 50.3 125.959 48.94 126.819 45.68C128.039 45.2 133.239 42.78 132.579 41.06C132.399 40.62 131.819 40.32 131.139 40.8C129.319 42.12 129.379 42.24 127.199 42.84C126.599 40.96 123.839 41.04 123.239 40.36C123.439 39.1 125.619 38.78 125.699 38.74C125.859 38.62 127.119 36.6 125.679 36.48ZM124.179 45.42C121.719 49.92 120.219 45.8 123.299 45.52L124.179 45.42ZM139.57 38.64C137.15 38.58 133.89 38.78 132.89 40.82C131.87 42.9 134.55 45.06 135.43 45.06C136.27 45.06 137.11 44.02 138.05 43.38C138.67 42.94 137.15 45.64 138.39 46.5C138.93 46.9 139.55 46.72 140.09 46.42C142.51 45.12 144.41 43.78 146.61 42C146.75 41.5 146.75 41.32 146.43 40.98C146.13 40.68 145.79 40.52 145.35 40.68C144.95 40.98 140.61 43.74 140.61 43.28L142.13 39.82C142.33 38.38 140.61 38.64 139.57 38.64ZM137.57 41.08C136.85 41.74 135.53 43.24 134.93 41.56C135.45 41.08 137.79 40.74 137.57 41.08ZM163.202 15.6C162.782 15.6 162.302 15.94 162.162 16.36C162.162 16.36 159.402 24.42 156.062 32.3C155.062 34.66 154.022 36.98 152.982 39.06C152.642 38.74 152.262 38.5 151.842 38.34C151.042 38.06 150.202 38.2 149.542 38.54C148.222 39.22 147.382 40.54 146.702 41.94C146.002 43.36 145.562 44.86 145.462 46.12C145.402 46.76 145.402 47.34 145.742 47.98C145.902 48.3 146.222 48.62 146.622 48.78C146.922 48.9 147.222 48.9 147.502 48.86C148.002 48.92 148.502 48.82 148.922 48.62C149.422 48.38 149.862 48.02 150.302 47.58C151.122 46.78 151.902 45.66 152.722 44.32L147.502 59.74C147.482 59.84 147.442 60 147.442 60.1C147.442 60.72 147.962 61.24 148.582 61.24C148.942 61.24 149.362 61 149.542 60.68C150.542 59.02 150.962 57.92 151.102 57.14C151.182 56.74 151.182 56.4 151.142 56.14C151.142 56.12 151.122 56.1 151.122 56.1L164.302 17.08C164.342 17 164.362 16.84 164.362 16.74C164.362 16.1 163.862 15.6 163.222 15.6C163.222 15.6 163.222 15.6 163.202 15.6ZM150.862 40.44C150.942 40.44 151.002 40.44 151.082 40.48C151.222 40.52 151.502 40.72 151.862 41.24C151.542 41.82 151.242 42.38 150.942 42.88C150.122 44.26 149.322 45.36 148.702 45.98C148.382 46.3 148.102 46.5 147.942 46.58C147.862 46.62 147.822 46.62 147.802 46.62C147.782 46.62 147.742 46.6 147.702 46.6C147.702 46.52 147.702 46.42 147.722 46.3C147.782 45.48 148.162 44.1 148.742 42.94C149.302 41.78 150.102 40.8 150.602 40.56C150.722 40.48 150.802 40.46 150.862 40.44ZM163.028 34.88L157.428 49.74C157.168 50.42 157.308 50.8 157.808 50.88C158.328 50.98 158.848 50.86 159.368 50.56C161.888 46.74 164.908 42.2 167.988 38.86C168.288 38.52 168.428 38.44 168.408 38.64C168.388 38.7 168.368 38.84 168.308 39.06C167.908 40.32 167.548 41.42 167.008 42.66C166.748 43.24 166.568 43.66 166.428 43.94C164.648 47.44 169.688 43.5 170.248 43.7C170.348 43.76 170.408 43.8 170.448 43.88C170.888 44.88 170.928 46.44 171.548 47.16C171.788 47.44 172.088 47.58 172.448 47.56C174.548 47.48 178.188 44.06 179.888 42.76C180.228 42.42 180.288 41.98 180.068 41.48C179.828 40.98 179.448 40.78 178.848 40.88L173.608 44.32C173.368 44.48 173.208 44.58 173.128 44.56C173.068 44.54 172.988 44.42 172.928 44.2C172.528 42.24 173.728 39.58 170.468 40.62C170.408 40.62 170.348 40.62 170.268 40.62C170.108 40.58 170.268 40.34 170.248 40.14C170.628 38.94 171.208 36.86 170.308 35.86C168.688 33.76 164.708 39.52 163.748 40.72C163.428 41.12 163.268 41.32 163.268 41.32C163.188 41.36 163.288 41.1 163.468 40.56L165.148 35.44C165.388 34.72 165.228 34.32 164.728 34.22C164.248 34.12 163.668 34.34 163.028 34.88Z" fill="white"/>
<path fill-rule="evenodd" clip-rule="evenodd" d="M21.4345 23.8203C18.3401 26.2475 16.352 30.0208 16.352 34.2584C16.352 38.4961 18.3401 42.2694 21.4345 44.6965C19.1819 46.4634 16.3432 47.5169 13.2584 47.5169C5.936 47.5169 0 41.5809 0 34.2584C0 26.936 5.936 21 13.2584 21C16.3432 21 19.1819 22.0535 21.4345 23.8203Z" fill="#759324"/>
<path fill-rule="evenodd" clip-rule="evenodd" d="M39.9963 23.8203C36.902 26.2475 34.9139 30.0208 34.9139 34.2584C34.9139 38.4961 36.902 42.2694 39.9963 44.6965C37.7438 46.4634 34.9051 47.5169 31.8203 47.5169C24.4979 47.5169 18.5619 41.5809 18.5619 34.2584C18.5619 26.936 24.4979 21 31.8203 21C34.9051 21 37.7438 22.0535 39.9963 23.8203Z" fill="#7A5EB1"/>
<path fill-rule="evenodd" clip-rule="evenodd" d="M50.824 47.5169C58.1415 47.5169 64.0744 41.5889 64.0824 34.2732C64.0824 34.2683 64.0824 34.2634 64.0824 34.2584C64.0824 34.2535 64.0824 34.2486 64.0824 34.2436C64.0744 26.928 58.1415 21 50.824 21C43.5016 21 37.5656 26.936 37.5656 34.2584C37.5656 41.5809 43.5016 47.5169 50.824 47.5169Z" fill="#AF7A30"/>
</svg>
